<svg xmlns="http://www.w3.org/2000/svg" viewBox="0 0 1650 760" width="1650" height="760"><rect width="1650" height="760" fill="#ffffff"/><path d="M290,339 L320,339 L320,154.5 L350,154.5" fill="none" stroke="#64748b" stroke-width="1.6"/><line x1="299" y1="331" x2="299" y2="347" fill="none" stroke="#64748b" stroke-width="1.6"/><line x1="341" y1="146.5" x2="341" y2="162.5" fill="none" stroke="#64748b" stroke-width="1.6"/><rect x="301.2" y="237.75" width="37.6" height="18" rx="4" fill="#f8fafc" stroke="#cbd5e1" stroke-width="1"/><text x="320" y="250.75" font-family="ui-sans-serif,system-ui,Arial,sans-serif" font-size="11" font-weight="600" fill="#0f172a" text-anchor="middle">is a</text><path d="M290,339 L320,339 L320,461.5 L350,461.5" fill="none" stroke="#64748b" stroke-width="1.6"/><line x1="299" y1="331" x2="299" y2="347" fill="none" stroke="#64748b" stroke-width="1.6"/><line x1="341" y1="453.5" x2="341" y2="469.5" fill="none" stroke="#64748b" stroke-width="1.6"/><rect x="301.2" y="391.25" width="37.6" height="18" rx="4" fill="#f8fafc" stroke="#cbd5e1" stroke-width="1"/><text x="320" y="404.25" font-family="ui-sans-serif,system-ui,Arial,sans-serif" font-size="11" font-weight="600" fill="#0f172a" text-anchor="middle">is a</text><path d="M600,461.5 L640,461.5 L640,430.5 L680,430.5" fill="none" stroke="#64748b" stroke-width="1.6"/><line x1="609" y1="453.5" x2="609" y2="469.5" fill="none" stroke="#64748b" stroke-width="1.6"/><path d="M667,430.5 L680,422.5 M667,430.5 L680,438.5 M667,430.5 L680,430.5" fill="none" stroke="#64748b" stroke-width="1.6"/><rect x="611.6" y="437" width="56.800000000000004" height="18" rx="4" fill="#f8fafc" stroke="#cbd5e1" stroke-width="1"/><text x="640" y="450" font-family="ui-sans-serif,system-ui,Arial,sans-serif" font-size="11" font-weight="600" fill="#0f172a" text-anchor="middle">creates</text><path d="M600,154.5 L640,154.5 L640,152 L680,152" fill="none" stroke="#64748b" stroke-width="1.6"/><line x1="609" y1="146.5" x2="609" y2="162.5" fill="none" stroke="#64748b" stroke-width="1.6"/><path d="M667,152 L680,144 M667,152 L680,160 M667,152 L680,152" fill="none" stroke="#64748b" stroke-width="1.6"/><rect x="618" y="144.25" width="44" height="18" rx="4" fill="#f8fafc" stroke="#cbd5e1" stroke-width="1"/><text x="640" y="157.25" font-family="ui-sans-serif,system-ui,Arial,sans-serif" font-size="11" font-weight="600" fill="#0f172a" text-anchor="middle">makes</text><path d="M805,330 L805,297 L805,297 L805,264" fill="none" stroke="#64748b" stroke-width="1.6"/><line x1="797" y1="321" x2="813" y2="321" fill="none" stroke="#64748b" stroke-width="1.6"/><path d="M805,277 L797,264 M805,277 L813,264 M805,277 L805,264" fill="none" stroke="#64748b" stroke-width="1.6"/><rect x="773.4" y="288" width="63.2" height="18" rx="4" fill="#f8fafc" stroke="#cbd5e1" stroke-width="1"/><text x="805" y="301" font-family="ui-sans-serif,system-ui,Arial,sans-serif" font-size="11" font-weight="600" fill="#0f172a" text-anchor="middle">receives</text><path d="M930,410.4 L970,410.4 L970,384.5 L1010,384.5" fill="none" stroke="#64748b" stroke-width="1.6"/><line x1="939" y1="402.4" x2="939" y2="418.4" fill="none" stroke="#64748b" stroke-width="1.6"/><line x1="1001" y1="376.5" x2="1001" y2="392.5" fill="none" stroke="#64748b" stroke-width="1.6"/><rect x="954.4" y="388.45" width="31.200000000000003" height="18" rx="4" fill="#f8fafc" stroke="#cbd5e1" stroke-width="1"/><text x="970" y="401.45" font-family="ui-sans-serif,system-ui,Arial,sans-serif" font-size="11" font-weight="600" fill="#0f172a" text-anchor="middle">has</text><path d="M930,474.72 L970,474.72 L970,626 L1010,626" fill="none" stroke="#64748b" stroke-width="1.6"/><line x1="939" y1="466.72" x2="939" y2="482.72" fill="none" stroke="#64748b" stroke-width="1.6"/><path d="M997,626 L1010,618 M997,626 L1010,634 M997,626 L1010,626" fill="none" stroke="#64748b" stroke-width="1.6"/><rect x="954.4" y="541.36" width="31.200000000000003" height="18" rx="4" fill="#f8fafc" stroke="#cbd5e1" stroke-width="1"/><text x="970" y="554.36" font-family="ui-sans-serif,system-ui,Arial,sans-serif" font-size="11" font-weight="600" fill="#0f172a" text-anchor="middle">has</text><path d="M1260,373.6 L1300,373.6 L1300,216 L1340,216" fill="none" stroke="#64748b" stroke-width="1.6"/><line x1="1269" y1="365.6" x2="1269" y2="381.6" fill="none" stroke="#64748b" stroke-width="1.6"/><path d="M1327,216 L1340,208 M1327,216 L1340,224 M1327,216 L1340,216" fill="none" stroke="#64748b" stroke-width="1.6"/><rect x="1284.4" y="285.8" width="31.200000000000003" height="18" rx="4" fill="#f8fafc" stroke="#cbd5e1" stroke-width="1"/><text x="1300" y="298.8" font-family="ui-sans-serif,system-ui,Arial,sans-serif" font-size="11" font-weight="600" fill="#0f172a" text-anchor="middle">has</text><path d="M1260,408.48 L1300,408.48 L1300,426 L1340,426" fill="none" stroke="#64748b" stroke-width="1.6"/><line x1="1269" y1="400.48" x2="1269" y2="416.48" fill="none" stroke="#64748b" stroke-width="1.6"/><path d="M1327,426 L1340,418 M1327,426 L1340,434 M1327,426 L1340,426" fill="none" stroke="#64748b" stroke-width="1.6"/><rect x="1271.6" y="408.24" width="56.800000000000004" height="18" rx="4" fill="#f8fafc" stroke="#cbd5e1" stroke-width="1"/><text x="1300" y="421.24" font-family="ui-sans-serif,system-ui,Arial,sans-serif" font-size="11" font-weight="600" fill="#0f172a" text-anchor="middle">defines</text><path d="M1260,626 L1300,626 L1300,626 L1340,626" fill="none" stroke="#64748b" stroke-width="1.6"/><line x1="1269" y1="618" x2="1269" y2="634" fill="none" stroke="#64748b" stroke-width="1.6"/><path d="M1327,626 L1340,618 M1327,626 L1340,634 M1327,626 L1340,626" fill="none" stroke="#64748b" stroke-width="1.6"/><rect x="1268.4" y="617" width="63.2" height="18" rx="4" fill="#f8fafc" stroke="#cbd5e1" stroke-width="1"/><text x="1300" y="630" font-family="ui-sans-serif,system-ui,Arial,sans-serif" font-size="11" font-weight="600" fill="#0f172a" text-anchor="middle">contains</text><g><rect x="40" y="250" width="250" height="178" rx="9" fill="#ffffff" stroke="#cbd5e1" stroke-width="1.5"/><path d="M40,280 L40,259 Q40,250 49,250 L281,250 Q290,250 290,259 L290,280 Z" fill="#6366f1"/><text x="165" y="270" font-family="ui-sans-serif,system-ui,Arial,sans-serif" font-size="14" font-weight="600" fill="#ffffff" text-anchor="middle">USER</text><rect x="50" y="284" width="22" height="15" rx="3" fill="#fde68a"/><text x="61" y="295" font-family="ui-monospace,Menlo,monospace" font-size="9" font-weight="700" fill="#334155" text-anchor="middle">PK</text><text x="76" y="295.5" font-family="ui-sans-serif,system-ui,Arial,sans-serif" font-size="12.5" font-weight="500" fill="#0f172a">id</text><text x="280" y="295.5" font-family="ui-monospace,Menlo,monospace" font-size="11.5" fill="#64748b" text-anchor="end">int</text><line x1="40" y1="303" x2="290" y2="303" stroke="#e8edf3" stroke-width="1"/><text x="50" y="318.5" font-family="ui-sans-serif,system-ui,Arial,sans-serif" font-size="12.5" font-weight="500" fill="#0f172a">first_name</text><text x="280" y="318.5" font-family="ui-monospace,Menlo,monospace" font-size="11.5" fill="#64748b" text-anchor="end">varchar</text><line x1="40" y1="326" x2="290" y2="326" stroke="#e8edf3" stroke-width="1"/><text x="50" y="341.5" font-family="ui-sans-serif,system-ui,Arial,sans-serif" font-size="12.5" font-weight="500" fill="#0f172a">last_name</text><text x="280" y="341.5" font-family="ui-monospace,Menlo,monospace" font-size="11.5" fill="#64748b" text-anchor="end">varchar</text><line x1="40" y1="349" x2="290" y2="349" stroke="#e8edf3" stroke-width="1"/><rect x="50" y="353" width="22" height="15" rx="3" fill="#ede9fe"/><text x="61" y="364" font-family="ui-monospace,Menlo,monospace" font-size="9" font-weight="700" fill="#334155" text-anchor="middle">UK</text><text x="76" y="364.5" font-family="ui-sans-serif,system-ui,Arial,sans-serif" font-size="12.5" font-weight="500" fill="#0f172a">email</text><text x="280" y="364.5" font-family="ui-monospace,Menlo,monospace" font-size="11.5" fill="#64748b" text-anchor="end">varchar</text><line x1="40" y1="372" x2="290" y2="372" stroke="#e8edf3" stroke-width="1"/><text x="50" y="387.5" font-family="ui-sans-serif,system-ui,Arial,sans-serif" font-size="12.5" font-weight="500" fill="#0f172a">password</text><text x="280" y="387.5" font-family="ui-monospace,Menlo,monospace" font-size="11.5" fill="#64748b" text-anchor="end">varchar</text><line x1="40" y1="395" x2="290" y2="395" stroke="#e8edf3" stroke-width="1"/><text x="50" y="410.5" font-family="ui-sans-serif,system-ui,Arial,sans-serif" font-size="12.5" font-weight="500" fill="#0f172a">avatar</text><text x="280" y="410.5" font-family="ui-monospace,Menlo,monospace" font-size="11.5" fill="#64748b" text-anchor="end">varchar ·null</text></g><g><rect x="350" y="100" width="250" height="109" rx="9" fill="#ffffff" stroke="#cbd5e1" stroke-width="1.5"/><path d="M350,130 L350,109 Q350,100 359,100 L591,100 Q600,100 600,109 L600,130 Z" fill="#6366f1"/><text x="475" y="120" font-family="ui-sans-serif,system-ui,Arial,sans-serif" font-size="14" font-weight="600" fill="#ffffff" text-anchor="middle">CODER</text><rect x="360" y="134" width="22" height="15" rx="3" fill="#fde68a"/><text x="371" y="145" font-family="ui-monospace,Menlo,monospace" font-size="9" font-weight="700" fill="#334155" text-anchor="middle">PK</text><rect x="386" y="134" width="22" height="15" rx="3" fill="#dbeafe"/><text x="397" y="145" font-family="ui-monospace,Menlo,monospace" font-size="9" font-weight="700" fill="#334155" text-anchor="middle">FK</text><text x="412" y="145.5" font-family="ui-sans-serif,system-ui,Arial,sans-serif" font-size="12.5" font-weight="500" fill="#0f172a">id</text><text x="590" y="145.5" font-family="ui-monospace,Menlo,monospace" font-size="11.5" fill="#64748b" text-anchor="end">int</text><line x1="350" y1="153" x2="600" y2="153" stroke="#e8edf3" stroke-width="1"/><text x="360" y="168.5" font-family="ui-sans-serif,system-ui,Arial,sans-serif" font-size="12.5" font-weight="500" fill="#0f172a">description</text><text x="590" y="168.5" font-family="ui-monospace,Menlo,monospace" font-size="11.5" fill="#64748b" text-anchor="end">text ·null</text><line x1="350" y1="176" x2="600" y2="176" stroke="#e8edf3" stroke-width="1"/><text x="360" y="191.5" font-family="ui-sans-serif,system-ui,Arial,sans-serif" font-size="12.5" font-weight="500" fill="#0f172a">score</text><text x="590" y="191.5" font-family="ui-monospace,Menlo,monospace" font-size="11.5" fill="#64748b" text-anchor="end">int</text></g><g><rect x="350" y="430" width="250" height="63" rx="9" fill="#ffffff" stroke="#cbd5e1" stroke-width="1.5"/><path d="M350,460 L350,439 Q350,430 359,430 L591,430 Q600,430 600,439 L600,460 Z" fill="#6366f1"/><text x="475" y="450" font-family="ui-sans-serif,system-ui,Arial,sans-serif" font-size="14" font-weight="600" fill="#ffffff" text-anchor="middle">MANAGER</text><rect x="360" y="464" width="22" height="15" rx="3" fill="#fde68a"/><text x="371" y="475" font-family="ui-monospace,Menlo,monospace" font-size="9" font-weight="700" fill="#334155" text-anchor="middle">PK</text><rect x="386" y="464" width="22" height="15" rx="3" fill="#dbeafe"/><text x="397" y="475" font-family="ui-monospace,Menlo,monospace" font-size="9" font-weight="700" fill="#334155" text-anchor="middle">FK</text><text x="412" y="475.5" font-family="ui-sans-serif,system-ui,Arial,sans-serif" font-size="12.5" font-weight="500" fill="#0f172a">id</text><text x="590" y="475.5" font-family="ui-monospace,Menlo,monospace" font-size="11.5" fill="#64748b" text-anchor="end">int</text></g><g><rect x="680" y="40" width="250" height="224" rx="9" fill="#ffffff" stroke="#cbd5e1" stroke-width="1.5"/><path d="M680,70 L680,49 Q680,40 689,40 L921,40 Q930,40 930,49 L930,70 Z" fill="#d97706"/><text x="805" y="60" font-family="ui-sans-serif,system-ui,Arial,sans-serif" font-size="14" font-weight="600" fill="#ffffff" text-anchor="middle">SUBMISSION</text><rect x="690" y="74" width="22" height="15" rx="3" fill="#fde68a"/><text x="701" y="85" font-family="ui-monospace,Menlo,monospace" font-size="9" font-weight="700" fill="#334155" text-anchor="middle">PK</text><text x="716" y="85.5" font-family="ui-sans-serif,system-ui,Arial,sans-serif" font-size="12.5" font-weight="500" fill="#0f172a">id</text><text x="920" y="85.5" font-family="ui-monospace,Menlo,monospace" font-size="11.5" fill="#64748b" text-anchor="end">int</text><line x1="680" y1="93" x2="930" y2="93" stroke="#e8edf3" stroke-width="1"/><rect x="690" y="97" width="22" height="15" rx="3" fill="#dbeafe"/><text x="701" y="108" font-family="ui-monospace,Menlo,monospace" font-size="9" font-weight="700" fill="#334155" text-anchor="middle">FK</text><text x="716" y="108.5" font-family="ui-sans-serif,system-ui,Arial,sans-serif" font-size="12.5" font-weight="500" fill="#0f172a">coder_id</text><text x="920" y="108.5" font-family="ui-monospace,Menlo,monospace" font-size="11.5" fill="#64748b" text-anchor="end">int</text><line x1="680" y1="116" x2="930" y2="116" stroke="#e8edf3" stroke-width="1"/><rect x="690" y="120" width="22" height="15" rx="3" fill="#dbeafe"/><text x="701" y="131" font-family="ui-monospace,Menlo,monospace" font-size="9" font-weight="700" fill="#334155" text-anchor="middle">FK</text><text x="716" y="131.5" font-family="ui-sans-serif,system-ui,Arial,sans-serif" font-size="12.5" font-weight="500" fill="#0f172a">challenge_id</text><text x="920" y="131.5" font-family="ui-monospace,Menlo,monospace" font-size="11.5" fill="#64748b" text-anchor="end">int</text><line x1="680" y1="139" x2="930" y2="139" stroke="#e8edf3" stroke-width="1"/><text x="690" y="154.5" font-family="ui-sans-serif,system-ui,Arial,sans-serif" font-size="12.5" font-weight="500" fill="#0f172a">submitted_at</text><text x="920" y="154.5" font-family="ui-monospace,Menlo,monospace" font-size="11.5" fill="#64748b" text-anchor="end">datetime</text><line x1="680" y1="162" x2="930" y2="162" stroke="#e8edf3" stroke-width="1"/><text x="690" y="177.5" font-family="ui-sans-serif,system-ui,Arial,sans-serif" font-size="12.5" font-weight="500" fill="#0f172a">passed</text><text x="920" y="177.5" font-family="ui-monospace,Menlo,monospace" font-size="11.5" fill="#64748b" text-anchor="end">boolean</text><line x1="680" y1="185" x2="930" y2="185" stroke="#e8edf3" stroke-width="1"/><text x="690" y="200.5" font-family="ui-sans-serif,system-ui,Arial,sans-serif" font-size="12.5" font-weight="500" fill="#0f172a">score</text><text x="920" y="200.5" font-family="ui-monospace,Menlo,monospace" font-size="11.5" fill="#64748b" text-anchor="end">decimal</text><line x1="680" y1="208" x2="930" y2="208" stroke="#e8edf3" stroke-width="1"/><text x="690" y="223.5" font-family="ui-sans-serif,system-ui,Arial,sans-serif" font-size="12.5" font-weight="500" fill="#0f172a">code</text><text x="920" y="223.5" font-family="ui-monospace,Menlo,monospace" font-size="11.5" fill="#64748b" text-anchor="end">text</text><line x1="680" y1="231" x2="930" y2="231" stroke="#e8edf3" stroke-width="1"/><text x="690" y="246.5" font-family="ui-sans-serif,system-ui,Arial,sans-serif" font-size="12.5" font-weight="500" fill="#0f172a">language</text><text x="920" y="246.5" font-family="ui-monospace,Menlo,monospace" font-size="11.5" fill="#64748b" text-anchor="end">varchar</text></g><g><rect x="680" y="330" width="250" height="201" rx="9" fill="#ffffff" stroke="#cbd5e1" stroke-width="1.5"/><path d="M680,360 L680,339 Q680,330 689,330 L921,330 Q930,330 930,339 L930,360 Z" fill="#7c3aed"/><text x="805" y="350" font-family="ui-sans-serif,system-ui,Arial,sans-serif" font-size="14" font-weight="600" fill="#ffffff" text-anchor="middle">CHALLENGE</text><rect x="690" y="364" width="22" height="15" rx="3" fill="#fde68a"/><text x="701" y="375" font-family="ui-monospace,Menlo,monospace" font-size="9" font-weight="700" fill="#334155" text-anchor="middle">PK</text><text x="716" y="375.5" font-family="ui-sans-serif,system-ui,Arial,sans-serif" font-size="12.5" font-weight="500" fill="#0f172a">id</text><text x="920" y="375.5" font-family="ui-monospace,Menlo,monospace" font-size="11.5" fill="#64748b" text-anchor="end">int</text><line x1="680" y1="383" x2="930" y2="383" stroke="#e8edf3" stroke-width="1"/><text x="690" y="398.5" font-family="ui-sans-serif,system-ui,Arial,sans-serif" font-size="12.5" font-weight="500" fill="#0f172a">title</text><text x="920" y="398.5" font-family="ui-monospace,Menlo,monospace" font-size="11.5" fill="#64748b" text-anchor="end">varchar</text><line x1="680" y1="406" x2="930" y2="406" stroke="#e8edf3" stroke-width="1"/><text x="690" y="421.5" font-family="ui-sans-serif,system-ui,Arial,sans-serif" font-size="12.5" font-weight="500" fill="#0f172a">category</text><text x="920" y="421.5" font-family="ui-monospace,Menlo,monospace" font-size="11.5" fill="#64748b" text-anchor="end">varchar</text><line x1="680" y1="429" x2="930" y2="429" stroke="#e8edf3" stroke-width="1"/><text x="690" y="444.5" font-family="ui-sans-serif,system-ui,Arial,sans-serif" font-size="12.5" font-weight="500" fill="#0f172a">description</text><text x="920" y="444.5" font-family="ui-monospace,Menlo,monospace" font-size="11.5" fill="#64748b" text-anchor="end">text ·md</text><line x1="680" y1="452" x2="930" y2="452" stroke="#e8edf3" stroke-width="1"/><text x="690" y="467.5" font-family="ui-sans-serif,system-ui,Arial,sans-serif" font-size="12.5" font-weight="500" fill="#0f172a">difficulty</text><text x="920" y="467.5" font-family="ui-monospace,Menlo,monospace" font-size="11.5" fill="#64748b" text-anchor="end">enum</text><line x1="680" y1="475" x2="930" y2="475" stroke="#e8edf3" stroke-width="1"/><rect x="690" y="479" width="22" height="15" rx="3" fill="#dbeafe"/><text x="701" y="490" font-family="ui-monospace,Menlo,monospace" font-size="9" font-weight="700" fill="#334155" text-anchor="middle">FK</text><text x="716" y="490.5" font-family="ui-sans-serif,system-ui,Arial,sans-serif" font-size="12.5" font-weight="500" fill="#0f172a">manager_id</text><text x="920" y="490.5" font-family="ui-monospace,Menlo,monospace" font-size="11.5" fill="#64748b" text-anchor="end">int</text><line x1="680" y1="498" x2="930" y2="498" stroke="#e8edf3" stroke-width="1"/><text x="690" y="513.5" font-family="ui-sans-serif,system-ui,Arial,sans-serif" font-size="12.5" font-weight="500" fill="#0f172a">created_at</text><text x="920" y="513.5" font-family="ui-monospace,Menlo,monospace" font-size="11.5" fill="#64748b" text-anchor="end">datetime</text></g><g><rect x="1010" y="330" width="250" height="109" rx="9" fill="#ffffff" stroke="#cbd5e1" stroke-width="1.5"/><path d="M1010,360 L1010,339 Q1010,330 1019,330 L1251,330 Q1260,330 1260,339 L1260,360 Z" fill="#2563eb"/><text x="1135" y="350" font-family="ui-sans-serif,system-ui,Arial,sans-serif" font-size="14" font-weight="600" fill="#ffffff" text-anchor="middle">CODE</text><rect x="1020" y="364" width="22" height="15" rx="3" fill="#fde68a"/><text x="1031" y="375" font-family="ui-monospace,Menlo,monospace" font-size="9" font-weight="700" fill="#334155" text-anchor="middle">PK</text><text x="1046" y="375.5" font-family="ui-sans-serif,system-ui,Arial,sans-serif" font-size="12.5" font-weight="500" fill="#0f172a">id</text><text x="1250" y="375.5" font-family="ui-monospace,Menlo,monospace" font-size="11.5" fill="#64748b" text-anchor="end">int</text><line x1="1010" y1="383" x2="1260" y2="383" stroke="#e8edf3" stroke-width="1"/><rect x="1020" y="387" width="22" height="15" rx="3" fill="#dbeafe"/><text x="1031" y="398" font-family="ui-monospace,Menlo,monospace" font-size="9" font-weight="700" fill="#334155" text-anchor="middle">FK</text><rect x="1046" y="387" width="22" height="15" rx="3" fill="#ede9fe"/><text x="1057" y="398" font-family="ui-monospace,Menlo,monospace" font-size="9" font-weight="700" fill="#334155" text-anchor="middle">UK</text><text x="1072" y="398.5" font-family="ui-sans-serif,system-ui,Arial,sans-serif" font-size="12.5" font-weight="500" fill="#0f172a">challenge_id</text><text x="1250" y="398.5" font-family="ui-monospace,Menlo,monospace" font-size="11.5" fill="#64748b" text-anchor="end">int</text><line x1="1010" y1="406" x2="1260" y2="406" stroke="#e8edf3" stroke-width="1"/><text x="1020" y="421.5" font-family="ui-sans-serif,system-ui,Arial,sans-serif" font-size="12.5" font-weight="500" fill="#0f172a">function_name</text><text x="1250" y="421.5" font-family="ui-monospace,Menlo,monospace" font-size="11.5" fill="#64748b" text-anchor="end">varchar</text></g><g><rect x="1010" y="560" width="250" height="132" rx="9" fill="#ffffff" stroke="#cbd5e1" stroke-width="1.5"/><path d="M1010,590 L1010,569 Q1010,560 1019,560 L1251,560 Q1260,560 1260,569 L1260,590 Z" fill="#0d9488"/><text x="1135" y="580" font-family="ui-sans-serif,system-ui,Arial,sans-serif" font-size="14" font-weight="600" fill="#ffffff" text-anchor="middle">TEST_CASE</text><rect x="1020" y="594" width="22" height="15" rx="3" fill="#fde68a"/><text x="1031" y="605" font-family="ui-monospace,Menlo,monospace" font-size="9" font-weight="700" fill="#334155" text-anchor="middle">PK</text><text x="1046" y="605.5" font-family="ui-sans-serif,system-ui,Arial,sans-serif" font-size="12.5" font-weight="500" fill="#0f172a">id</text><text x="1250" y="605.5" font-family="ui-monospace,Menlo,monospace" font-size="11.5" fill="#64748b" text-anchor="end">int</text><line x1="1010" y1="613" x2="1260" y2="613" stroke="#e8edf3" stroke-width="1"/><rect x="1020" y="617" width="22" height="15" rx="3" fill="#dbeafe"/><text x="1031" y="628" font-family="ui-monospace,Menlo,monospace" font-size="9" font-weight="700" fill="#334155" text-anchor="middle">FK</text><text x="1046" y="628.5" font-family="ui-sans-serif,system-ui,Arial,sans-serif" font-size="12.5" font-weight="500" fill="#0f172a">challenge_id</text><text x="1250" y="628.5" font-family="ui-monospace,Menlo,monospace" font-size="11.5" fill="#64748b" text-anchor="end">int</text><line x1="1010" y1="636" x2="1260" y2="636" stroke="#e8edf3" stroke-width="1"/><text x="1020" y="651.5" font-family="ui-sans-serif,system-ui,Arial,sans-serif" font-size="12.5" font-weight="500" fill="#0f172a">weight</text><text x="1250" y="651.5" font-family="ui-monospace,Menlo,monospace" font-size="11.5" fill="#64748b" text-anchor="end">decimal ·0-1</text><line x1="1010" y1="659" x2="1260" y2="659" stroke="#e8edf3" stroke-width="1"/><text x="1020" y="674.5" font-family="ui-sans-serif,system-ui,Arial,sans-serif" font-size="12.5" font-weight="500" fill="#0f172a">expected_output</text><text x="1250" y="674.5" font-family="ui-monospace,Menlo,monospace" font-size="11.5" fill="#64748b" text-anchor="end">text</text></g><g><rect x="1340" y="150" width="250" height="132" rx="9" fill="#ffffff" stroke="#cbd5e1" stroke-width="1.5"/><path d="M1340,180 L1340,159 Q1340,150 1349,150 L1581,150 Q1590,150 1590,159 L1590,180 Z" fill="#2563eb"/><text x="1465" y="170" font-family="ui-sans-serif,system-ui,Arial,sans-serif" font-size="14" font-weight="600" fill="#ffffff" text-anchor="middle">CODE_TEXT</text><rect x="1350" y="184" width="22" height="15" rx="3" fill="#fde68a"/><text x="1361" y="195" font-family="ui-monospace,Menlo,monospace" font-size="9" font-weight="700" fill="#334155" text-anchor="middle">PK</text><text x="1376" y="195.5" font-family="ui-sans-serif,system-ui,Arial,sans-serif" font-size="12.5" font-weight="500" fill="#0f172a">id</text><text x="1580" y="195.5" font-family="ui-monospace,Menlo,monospace" font-size="11.5" fill="#64748b" text-anchor="end">int</text><line x1="1340" y1="203" x2="1590" y2="203" stroke="#e8edf3" stroke-width="1"/><rect x="1350" y="207" width="22" height="15" rx="3" fill="#dbeafe"/><text x="1361" y="218" font-family="ui-monospace,Menlo,monospace" font-size="9" font-weight="700" fill="#334155" text-anchor="middle">FK</text><text x="1376" y="218.5" font-family="ui-sans-serif,system-ui,Arial,sans-serif" font-size="12.5" font-weight="500" fill="#0f172a">code_id</text><text x="1580" y="218.5" font-family="ui-monospace,Menlo,monospace" font-size="11.5" fill="#64748b" text-anchor="end">int</text><line x1="1340" y1="226" x2="1590" y2="226" stroke="#e8edf3" stroke-width="1"/><text x="1350" y="241.5" font-family="ui-sans-serif,system-ui,Arial,sans-serif" font-size="12.5" font-weight="500" fill="#0f172a">language</text><text x="1580" y="241.5" font-family="ui-monospace,Menlo,monospace" font-size="11.5" fill="#64748b" text-anchor="end">varchar</text><line x1="1340" y1="249" x2="1590" y2="249" stroke="#e8edf3" stroke-width="1"/><text x="1350" y="264.5" font-family="ui-sans-serif,system-ui,Arial,sans-serif" font-size="12.5" font-weight="500" fill="#0f172a">content</text><text x="1580" y="264.5" font-family="ui-monospace,Menlo,monospace" font-size="11.5" fill="#64748b" text-anchor="end">text</text></g><g><rect x="1340" y="360" width="250" height="132" rx="9" fill="#ffffff" stroke="#cbd5e1" stroke-width="1.5"/><path d="M1340,390 L1340,369 Q1340,360 1349,360 L1581,360 Q1590,360 1590,369 L1590,390 Z" fill="#2563eb"/><text x="1465" y="380" font-family="ui-sans-serif,system-ui,Arial,sans-serif" font-size="14" font-weight="600" fill="#ffffff" text-anchor="middle">FUNCTION_INPUT_DEFINITION</text><rect x="1350" y="394" width="22" height="15" rx="3" fill="#fde68a"/><text x="1361" y="405" font-family="ui-monospace,Menlo,monospace" font-size="9" font-weight="700" fill="#334155" text-anchor="middle">PK</text><text x="1376" y="405.5" font-family="ui-sans-serif,system-ui,Arial,sans-serif" font-size="12.5" font-weight="500" fill="#0f172a">id</text><text x="1580" y="405.5" font-family="ui-monospace,Menlo,monospace" font-size="11.5" fill="#64748b" text-anchor="end">int</text><line x1="1340" y1="413" x2="1590" y2="413" stroke="#e8edf3" stroke-width="1"/><rect x="1350" y="417" width="22" height="15" rx="3" fill="#dbeafe"/><text x="1361" y="428" font-family="ui-monospace,Menlo,monospace" font-size="9" font-weight="700" fill="#334155" text-anchor="middle">FK</text><text x="1376" y="428.5" font-family="ui-sans-serif,system-ui,Arial,sans-serif" font-size="12.5" font-weight="500" fill="#0f172a">code_id</text><text x="1580" y="428.5" font-family="ui-monospace,Menlo,monospace" font-size="11.5" fill="#64748b" text-anchor="end">int</text><line x1="1340" y1="436" x2="1590" y2="436" stroke="#e8edf3" stroke-width="1"/><text x="1350" y="451.5" font-family="ui-sans-serif,system-ui,Arial,sans-serif" font-size="12.5" font-weight="500" fill="#0f172a">name</text><text x="1580" y="451.5" font-family="ui-monospace,Menlo,monospace" font-size="11.5" fill="#64748b" text-anchor="end">varchar</text><line x1="1340" y1="459" x2="1590" y2="459" stroke="#e8edf3" stroke-width="1"/><text x="1350" y="474.5" font-family="ui-sans-serif,system-ui,Arial,sans-serif" font-size="12.5" font-weight="500" fill="#0f172a">type</text><text x="1580" y="474.5" font-family="ui-monospace,Menlo,monospace" font-size="11.5" fill="#64748b" text-anchor="end">varchar</text></g><g><rect x="1340" y="560" width="250" height="132" rx="9" fill="#ffffff" stroke="#cbd5e1" stroke-width="1.5"/><path d="M1340,590 L1340,569 Q1340,560 1349,560 L1581,560 Q1590,560 1590,569 L1590,590 Z" fill="#0d9488"/><text x="1465" y="580" font-family="ui-sans-serif,system-ui,Arial,sans-serif" font-size="14" font-weight="600" fill="#ffffff" text-anchor="middle">FUNCTION_INPUT_VALUE</text><rect x="1350" y="594" width="22" height="15" rx="3" fill="#fde68a"/><text x="1361" y="605" font-family="ui-monospace,Menlo,monospace" font-size="9" font-weight="700" fill="#334155" text-anchor="middle">PK</text><text x="1376" y="605.5" font-family="ui-sans-serif,system-ui,Arial,sans-serif" font-size="12.5" font-weight="500" fill="#0f172a">id</text><text x="1580" y="605.5" font-family="ui-monospace,Menlo,monospace" font-size="11.5" fill="#64748b" text-anchor="end">int</text><line x1="1340" y1="613" x2="1590" y2="613" stroke="#e8edf3" stroke-width="1"/><rect x="1350" y="617" width="22" height="15" rx="3" fill="#dbeafe"/><text x="1361" y="628" font-family="ui-monospace,Menlo,monospace" font-size="9" font-weight="700" fill="#334155" text-anchor="middle">FK</text><text x="1376" y="628.5" font-family="ui-sans-serif,system-ui,Arial,sans-serif" font-size="12.5" font-weight="500" fill="#0f172a">test_case_id</text><text x="1580" y="628.5" font-family="ui-monospace,Menlo,monospace" font-size="11.5" fill="#64748b" text-anchor="end">int</text><line x1="1340" y1="636" x2="1590" y2="636" stroke="#e8edf3" stroke-width="1"/><text x="1350" y="651.5" font-family="ui-sans-serif,system-ui,Arial,sans-serif" font-size="12.5" font-weight="500" fill="#0f172a">name</text><text x="1580" y="651.5" font-family="ui-monospace,Menlo,monospace" font-size="11.5" fill="#64748b" text-anchor="end">varchar</text><line x1="1340" y1="659" x2="1590" y2="659" stroke="#e8edf3" stroke-width="1"/><text x="1350" y="674.5" font-family="ui-sans-serif,system-ui,Arial,sans-serif" font-size="12.5" font-weight="500" fill="#0f172a">value</text><text x="1580" y="674.5" font-family="ui-monospace,Menlo,monospace" font-size="11.5" fill="#64748b" text-anchor="end">text</text></g></svg>